<svg width="200" height="60" viewBox="0 0 201 60" fill="none" xmlns="http://www.w3.org/2000/svg">
<path d="M187.428 30.0012C187.428 28.1964 185.965 26.7333 184.16 26.7333L154.749 26.7332C152.944 26.7332 151.481 28.1963 151.481 30.0012C151.481 31.806 152.944 33.2691 154.749 33.2691L184.16 33.2691C185.965 33.2691 187.428 31.806 187.428 30.0012Z" fill="white"/>
<path d="M197.232 13.6616C199.037 13.6616 200.5 12.1985 200.5 10.3937C200.5 8.5889 199.037 7.12581 197.232 7.12581L154.749 7.12578C152.944 7.12578 151.481 8.58887 151.481 10.3937C151.481 12.1985 152.944 13.6616 154.749 13.6616L197.232 13.6616Z" fill="white"/>
<path d="M167.821 49.6087C167.821 47.8038 166.358 46.3407 164.553 46.3407L154.749 46.3407C152.944 46.3407 151.481 47.8038 151.481 49.6086C151.481 51.4134 152.944 52.8765 154.749 52.8765L164.553 52.8766C166.358 52.8766 167.821 51.4135 167.821 49.6087Z" fill="white"/>
<path d="M69.2537 46.7158C70.6466 45.1086 71.343 42.8585 71.343 39.9656L71.343 18.7427L82.1914 18.7427L82.1914 39.8853C82.1914 43.0996 81.6825 45.9389 80.6646 48.4033C79.7003 50.814 78.361 52.8498 76.6467 54.5105C74.986 56.1177 73.0038 57.3231 70.7002 58.1267C68.4501 58.9838 66.0126 59.4124 63.3876 59.4124H63.1465C60.5214 59.4124 58.0839 58.9838 55.8338 58.1267C53.5302 57.3231 51.548 56.1177 49.8873 54.5105C48.173 52.8498 46.8337 50.814 45.8694 48.4033C45.492 47.4897 45.1846 46.5245 44.9471 45.5078C44.5441 43.7821 44.3426 41.9079 44.3426 39.8853V18.7427L55.191 18.7427V39.9656C55.191 42.8585 55.8874 45.1086 57.2803 46.7158C57.5536 47.0311 57.8486 47.3156 58.1653 47.5691C59.5957 48.5867 61.2963 49.1056 63.267 49.1259C65.2377 49.1056 66.9383 48.5867 68.3687 47.5691C68.6854 47.3156 68.9804 47.0311 69.2537 46.7158Z" fill="white"/>
<path d="M19.545 59.4124C14.9913 59.4124 11.0002 58.1802 7.57155 55.7159C4.1965 53.2516 1.83931 49.8497 0.5 45.5104L10.4644 41.4121C11.1609 43.9836 12.2859 45.9122 13.8395 47.1979C15.3931 48.4837 17.2949 49.1265 19.545 49.1265C22.0629 49.1265 24.0182 48.3229 25.4111 46.7158C26.804 45.1086 27.5004 42.8586 27.5004 39.9656L27.5004 0.590013L38.3488 0.590013L38.3488 39.8853C38.3488 43.0996 37.8399 45.939 36.822 48.4033C35.8577 50.814 34.5184 52.8498 32.8041 54.5105C31.1434 56.1177 29.1612 57.3231 26.8576 58.1267C24.6075 58.9838 22.17 59.4124 19.545 59.4124Z" fill="white"/>
<path d="M104.81 59.4124C102.238 59.4124 99.9347 59.0909 97.899 58.4481C95.9168 57.8052 94.1757 56.9748 92.6757 55.9569C91.2292 54.8855 89.997 53.6801 88.9792 52.3408C87.9613 50.9479 87.1845 49.5551 86.6488 48.1622L96.0507 44.1443C96.9614 46.18 98.1668 47.7068 99.6668 48.7247C101.22 49.689 102.935 50.1711 104.81 50.1711C106.738 50.1711 108.265 49.8229 109.39 49.1265C110.515 48.43 111.078 47.5997 111.078 46.6354C111.078 45.5639 110.596 44.7068 109.631 44.0639C108.721 43.3675 107.113 42.7514 104.81 42.2157L99.265 41.0103C98.0329 40.7424 96.7471 40.3139 95.4078 39.7246C94.1221 39.1353 92.9435 38.3852 91.8721 37.4745C90.8006 36.5638 89.9167 35.4655 89.2202 34.1798C88.5238 32.8941 88.1756 31.3941 88.1756 29.6797C88.1756 27.7511 88.5774 26.0368 89.381 24.5368C90.2381 23.0368 91.3899 21.7778 92.8364 20.76C94.2828 19.6885 95.9704 18.8849 97.899 18.3492C99.8811 17.7599 101.997 17.4653 104.247 17.4653C107.997 17.4653 111.346 18.2153 114.292 19.7153C117.239 21.1617 119.408 23.4921 120.801 26.7065L111.721 30.403C110.971 28.8494 109.872 27.7244 108.426 27.0279C106.979 26.3315 105.533 25.9833 104.087 25.9833C102.587 25.9833 101.274 26.3047 100.149 26.9476C99.024 27.5369 98.4615 28.3137 98.4615 29.278C98.4615 30.1887 98.9168 30.9119 99.8276 31.4476C100.792 31.9834 102.078 32.4655 103.685 32.8941L109.712 34.3405C113.73 35.3048 116.703 36.8584 118.631 39.0013C120.614 41.0906 121.605 43.5818 121.605 46.4747C121.605 48.189 121.203 49.8229 120.399 51.3765C119.596 52.9301 118.444 54.323 116.944 55.5552C115.497 56.7338 113.73 57.6713 111.64 58.3677C109.605 59.0641 107.328 59.4124 104.81 59.4124Z" fill="white"/>
<path d="M134.751 0.589996L145.599 0.589996V58.1266H134.751L134.746 27.7512H125.103V18.751H134.746L134.751 0.589996Z" fill="white"/>
</svg>