<svg width="24" height="24" viewBox="0 0 24 24" fill="none" xmlns="http://www.w3.org/2000/svg">
<path d="M0.375 12C0.375 18.4219 5.57812 23.625 12 23.625C18.4219 23.625 23.625 18.4219 23.625 12C23.625 5.57812 18.4219 0.375 12 0.375C5.57812 0.375 0.375 5.57812 0.375 12ZM21.375 12C21.375 17.1797 17.1797 21.375 12 21.375C6.82031 21.375 2.625 17.1797 2.625 12C2.625 6.82031 6.82031 2.625 12 2.625C17.1797 2.625 21.375 6.82031 21.375 12ZM18 11.0625V12.9375C18 13.2469 17.7469 13.5 17.4375 13.5H12V16.6406C12 17.1422 11.3953 17.3906 11.0391 17.0391L6.39844 12.3984C6.17812 12.1781 6.17812 11.8219 6.39844 11.6016L11.0391 6.96094C11.3953 6.60469 12 6.85781 12 7.35938V10.5H17.4375C17.7469 10.5 18 10.7531 18 11.0625Z" fill="#333333"/>
</svg>
