<svg width="24" height="24" viewBox="0 0 24 24" fill="none" xmlns="http://www.w3.org/2000/svg">
<path d="M3.77988 3.77988C-0.761069 8.32084 -0.761069 15.6792 3.77988 20.2201C8.32083 24.7611 15.6792 24.7611 20.2201 20.2201C24.7611 15.6792 24.7611 8.32084 20.2201 3.77988C15.6792 -0.761067 8.32083 -0.761067 3.77988 3.77988ZM18.6291 18.6291C14.9665 22.2917 9.03346 22.2917 5.37087 18.6291C1.70828 14.9665 1.70828 9.03347 5.37087 5.37087C9.03346 1.70828 14.9665 1.70828 18.6291 5.37087C22.2917 9.03347 22.2917 14.9665 18.6291 18.6291Z" fill="#333333"/>
<path d="M17.2495 11.4438V12.5699C17.2495 12.8812 16.9978 13.1329 16.6865 13.1329L13.1262 13.1296V16.6865C13.1262 16.9978 12.8746 17.2495 12.5632 17.2495H11.4372C11.1259 17.2495 10.8742 16.9978 10.8742 16.6865V13.1296L7.31729 13.1296C7.00598 13.1296 6.75427 12.8779 6.75427 12.5665V11.4405C6.75427 11.1292 7.00598 10.8775 7.31729 10.8775H10.8742V7.32059C10.8742 7.00928 11.1259 6.75758 11.4372 6.75758L12.5632 6.75758C12.8746 6.75758 13.1262 7.00928 13.1262 7.32059V10.8841H16.6832C16.9978 10.8808 17.2495 11.1325 17.2495 11.4438Z" fill="#333333"/>
</svg>
