<svg width="24" height="24" viewBox="0 0 24 24" fill="none" xmlns="http://www.w3.org/2000/svg">
<path d="M22.45 18.6H18.6V4.94625C18.6 3.98306 17.8599 3.2 16.95 3.2H7.04966C6.13975 3.2 5.39966 3.98306 5.39966 4.94625V18.6H1.55C1.24612 18.6 1 18.8461 1 19.15V20.25C1 20.5539 1.24612 20.8 1.55 20.8H22.45C22.7539 20.8 23 20.5539 23 20.25V19.15C23 18.8461 22.7539 18.6 22.45 18.6ZM15.2997 13.1C14.6923 13.1 14.1997 12.6074 14.1997 12C14.1997 11.3926 14.6923 10.9 15.2997 10.9C15.9071 10.9 16.3997 11.3926 16.3997 12C16.4 12.6074 15.9074 13.1 15.2997 13.1Z" fill="#333333"/>
</svg>
