<svg width="24" height="24" viewBox="0 0 24 24" fill="none" xmlns="http://www.w3.org/2000/svg">
<path fill-rule="evenodd" clip-rule="evenodd" d="M14.4086 3.11735C15.8984 1.62755 18.314 1.62755 19.8038 3.11735L20.8827 4.19636C22.3724 5.68615 22.3724 8.1016 20.8827 9.5914L8.47409 22H3.52595C2.68319 22 2 21.3168 2 20.474V15.5259L14.4086 3.11735ZM17.6456 5.27536L18.7247 6.35437C19.0226 6.65233 19.0226 7.13542 18.7247 7.43338L17.1062 9.0519L14.9482 6.89389L16.5667 5.27536C16.8647 4.97741 17.3476 4.9774 17.6456 5.27536ZM14.9482 11.2099L7.21005 18.9481H5.05189V16.7901L12.7902 9.0519L14.9482 11.2099Z" fill="#333333"/>
</svg>
