<svg width="24" height="24" viewBox="0 0 24 24" fill="none" xmlns="http://www.w3.org/2000/svg">
<path d="M6.54422 2.04044C6.49196 1.988 6.42987 1.9464 6.36149 1.918C6.29312 1.88961 6.21982 1.875 6.14578 1.875C6.07175 1.875 5.99845 1.88961 5.93007 1.918C5.8617 1.9464 5.7996 1.988 5.74735 2.04044L2.76235 5.0081L1.69829 3.97122C1.64603 3.91878 1.58393 3.87718 1.51556 3.84878C1.44719 3.82039 1.37388 3.80578 1.29985 3.80578C1.22582 3.80578 1.15251 3.82039 1.08414 3.84878C1.01577 3.87718 0.953669 3.91878 0.901411 3.97122L0.165474 4.7081C0.113034 4.76036 0.0714258 4.82245 0.0430353 4.89082C0.0146448 4.9592 3.05176e-05 5.0325 3.05176e-05 5.10654C3.05176e-05 5.18057 0.0146448 5.25387 0.0430353 5.32225C0.0714258 5.39062 0.113034 5.45271 0.165474 5.50497L2.39625 7.72685C2.5076 7.83269 2.65536 7.89171 2.80899 7.89171C2.96262 7.89171 3.11037 7.83269 3.22172 7.72685L3.9525 6.99466L7.33688 3.61076C7.44233 3.50522 7.50191 3.36237 7.5027 3.21318C7.50349 3.064 7.44542 2.92052 7.3411 2.81388L6.54422 2.04044ZM6.54422 9.50247C6.49196 9.45003 6.42987 9.40842 6.36149 9.38003C6.29312 9.35164 6.21982 9.33703 6.14578 9.33703C6.07175 9.33703 5.99845 9.35164 5.93007 9.38003C5.8617 9.40842 5.7996 9.45003 5.74735 9.50247L2.76235 12.4893L1.69829 11.4534C1.64603 11.401 1.58393 11.3594 1.51556 11.331C1.44719 11.3026 1.37388 11.288 1.29985 11.288C1.22582 11.288 1.15251 11.3026 1.08414 11.331C1.01577 11.3594 0.953669 11.401 0.901411 11.4534L0.165474 12.1889C0.113034 12.2411 0.0714258 12.3032 0.0430353 12.3716C0.0146448 12.44 3.05176e-05 12.5133 3.05176e-05 12.5873C3.05176e-05 12.6613 0.0146448 12.7346 0.0430353 12.803C0.0714258 12.8714 0.113034 12.9335 0.165474 12.9857L2.39063 15.2123C2.5019 15.3181 2.64958 15.3771 2.80313 15.3771C2.95668 15.3771 3.10436 15.3181 3.21563 15.2123L3.95157 14.4768L7.33594 11.0915C7.44098 10.9867 7.50037 10.8447 7.50116 10.6963C7.50195 10.5479 7.44408 10.4053 7.34016 10.2993L6.54422 9.50247ZM3 17.6264C1.75829 17.6264 0.722349 18.6342 0.722349 19.8764C0.722349 21.1186 1.75922 22.1264 3 22.1264C3.59674 22.1264 4.16904 21.8893 4.59099 21.4674C5.01295 21.0454 5.25 20.4731 5.25 19.8764C5.25 19.2796 5.01295 18.7073 4.59099 18.2854C4.16904 17.8634 3.59674 17.6264 3 17.6264ZM23.25 18.3764H9.75C9.55109 18.3764 9.36032 18.4554 9.21967 18.596C9.07902 18.7367 9 18.9275 9 19.1264V20.6264C9 20.8253 9.07902 21.016 9.21967 21.1567C9.36032 21.2974 9.55109 21.3764 9.75 21.3764H23.25C23.4489 21.3764 23.6397 21.2974 23.7803 21.1567C23.921 21.016 24 20.8253 24 20.6264V19.1264C24 18.9275 23.921 18.7367 23.7803 18.596C23.6397 18.4554 23.4489 18.3764 23.25 18.3764ZM23.25 3.37638H9.75C9.55109 3.37638 9.36032 3.4554 9.21967 3.59605C9.07902 3.7367 9 3.92747 9 4.12638V5.62638C9 5.82529 9.07902 6.01606 9.21967 6.15671C9.36032 6.29736 9.55109 6.37638 9.75 6.37638H23.25C23.4489 6.37638 23.6397 6.29736 23.7803 6.15671C23.921 6.01606 24 5.82529 24 5.62638V4.12638C24 3.92747 23.921 3.7367 23.7803 3.59605C23.6397 3.4554 23.4489 3.37638 23.25 3.37638ZM23.25 10.8764H9.75C9.55109 10.8764 9.36032 10.9554 9.21967 11.096C9.07902 11.2367 9 11.4275 9 11.6264V13.1264C9 13.3253 9.07902 13.5161 9.21967 13.6567C9.36032 13.7974 9.55109 13.8764 9.75 13.8764H23.25C23.4489 13.8764 23.6397 13.7974 23.7803 13.6567C23.921 13.5161 24 13.3253 24 13.1264V11.6264C24 11.4275 23.921 11.2367 23.7803 11.096C23.6397 10.9554 23.4489 10.8764 23.25 10.8764Z" fill="#333333"/>
</svg>
