<svg width="24" height="24" viewBox="0 0 24 24" fill="none" xmlns="http://www.w3.org/2000/svg">
<path fill-rule="evenodd" clip-rule="evenodd" d="M9.78852 2.97712C10.975 1.67429 13.025 1.67429 14.2115 2.97713L14.9448 3.78233C15.1447 4.00182 15.432 4.12081 15.7285 4.10696L16.8164 4.05611C18.5766 3.97385 20.0261 5.4234 19.9439 7.18362L19.893 8.27151C19.8792 8.56805 19.9982 8.85533 20.2177 9.05521L21.0229 9.78852C22.3257 10.975 22.3257 13.025 21.0229 14.2115L20.2177 14.9448C19.9982 15.1447 19.8792 15.432 19.893 15.7285L19.9439 16.8164C20.0261 18.5766 18.5766 20.0261 16.8164 19.9439L15.7285 19.893C15.432 19.8792 15.1447 19.9982 14.9448 20.2177L14.2115 21.0229C13.025 22.3257 10.975 22.3257 9.78852 21.0229L9.05521 20.2177C8.85533 19.9982 8.56805 19.8792 8.27151 19.893L7.18361 19.9439C5.42339 20.0261 3.97385 18.5766 4.05611 16.8164L4.10696 15.7285C4.12081 15.432 4.00182 15.1447 3.78233 14.9448L2.97712 14.2115C1.67429 13.025 1.67429 10.975 2.97713 9.78852L3.78233 9.05521C4.00182 8.85533 4.12081 8.56805 4.10696 8.27151L4.05611 7.18361C3.97385 5.42339 5.4234 3.97385 7.18362 4.05611L8.27151 4.10696C8.56805 4.12081 8.85533 4.00182 9.05522 3.78233L9.78852 2.97712ZM12.7372 4.31979C12.3417 3.88551 11.6583 3.88551 11.2628 4.31979L10.5295 5.125C9.92989 5.78345 9.06802 6.14044 8.17842 6.09887L7.09052 6.04802C6.50378 6.0206 6.0206 6.50378 6.04802 7.09052L6.09887 8.17842C6.14044 9.06802 5.78345 9.92989 5.125 10.5295L4.31979 11.2628C3.88551 11.6583 3.88551 12.3417 4.31979 12.7372L5.125 13.4705C5.78345 14.0701 6.14044 14.932 6.09887 15.8216L6.04802 16.9095C6.0206 17.4962 6.50378 17.9794 7.09052 17.952L8.17842 17.9011C9.06802 17.8596 9.92989 18.2166 10.5295 18.875L11.2628 19.6802C11.6583 20.1145 12.3417 20.1145 12.7372 19.6802L13.4705 18.875C14.0701 18.2166 14.932 17.8596 15.8216 17.9011L16.9095 17.952C17.4962 17.9794 17.9794 17.4962 17.952 16.9095L17.9011 15.8216C17.8596 14.932 18.2166 14.0701 18.875 13.4705L19.6802 12.7372C20.1145 12.3417 20.1145 11.6583 19.6802 11.2628L18.875 10.5295C18.2166 9.92989 17.8596 9.06802 17.9011 8.17842L17.952 7.09052C17.9794 6.50378 17.4962 6.0206 16.9095 6.04802L15.8216 6.09887C14.932 6.14044 14.0701 5.78345 13.4705 5.125L12.7372 4.31979Z" fill="#333333"/>
<path fill-rule="evenodd" clip-rule="evenodd" d="M12 10.0059C10.8987 10.0059 10.0059 10.8987 10.0059 12C10.0059 13.1013 10.8987 13.9941 12 13.9941C13.1013 13.9941 13.9941 13.1013 13.9941 12C13.9941 10.8987 13.1013 10.0059 12 10.0059ZM8.01183 12C8.01183 9.79739 9.79739 8.01183 12 8.01183C14.2026 8.01183 15.9882 9.79739 15.9882 12C15.9882 14.2026 14.2026 15.9882 12 15.9882C9.79739 15.9882 8.01183 14.2026 8.01183 12Z" fill="#333333"/>
</svg>
