<svg width="24" height="24" viewBox="0 0 24 24" fill="none" xmlns="http://www.w3.org/2000/svg">
<path d="M21.75 1.5H16.125L15.6844 0.623438C15.591 0.436039 15.4473 0.278402 15.2692 0.168262C15.0912 0.0581229 14.8859 -0.000149565 14.6766 5.8907e-07H9.31875C9.10987 -0.000802405 8.90498 0.0572528 8.72756 0.167515C8.55015 0.277777 8.40739 0.435786 8.31562 0.623438L7.875 1.5H2.25C2.05109 1.5 1.86032 1.57902 1.71967 1.71967C1.57902 1.86032 1.5 2.05109 1.5 2.25L1.5 3.75C1.5 3.94891 1.57902 4.13968 1.71967 4.28033C1.86032 4.42098 2.05109 4.5 2.25 4.5H21.75C21.9489 4.5 22.1397 4.42098 22.2803 4.28033C22.421 4.13968 22.5 3.94891 22.5 3.75V2.25C22.5 2.05109 22.421 1.86032 22.2803 1.71967C22.1397 1.57902 21.9489 1.5 21.75 1.5ZM3.99375 21.8906C4.02952 22.4619 4.28164 22.998 4.69878 23.3899C5.11591 23.7817 5.66672 23.9999 6.23906 24H17.7609C18.3333 23.9999 18.8841 23.7817 19.3012 23.3899C19.7184 22.998 19.9705 22.4619 20.0062 21.8906L21 6H3L3.99375 21.8906Z" fill="#333333"/>
</svg>
